<svg
   width="256"
   height="256"
   xmlns="http://www.w3.org/2000/svg">
  <path
     d="m 200.96693,165.35484 h -21.39172 v -15.83152 h 21.39172 c 9.10789,0 16.46832,-7.36043 16.46832,-16.41439 0,-9.10673 -7.41321,-16.51879 -16.46832,-16.51879 h -31.29359 c -4.23612,0 -7.99607,1.21737 -13.18567,4.23497 -0.95232,0.53009 -4.6595,3.2838 -5.98357,4.34168 -31.45307,25.25607 -36.32484,29.17437 -36.69544,29.49219 -1.27015,1.00625 -4.44724,3.38821 -6.61808,4.60673 -5.9308,3.60047 -12.232198,5.82409 -18.268554,6.14191 H 54.979143 c -17.791243,0 -32.299838,-14.45467 -32.299838,-32.24476 0,-17.84402 14.508595,-32.29834 32.299838,-32.29834 h 21.340083 v 15.7784 H 54.979143 c -9.107887,0 -16.467169,7.35928 -16.467169,16.51994 0,9.05396 7.413209,16.41324 16.467169,16.41324 0,0 32.777147,-0.0528 32.724368,-0.0528 3.707178,-0.21227 7.518768,-1.58912 11.967152,-4.28891 l 4.236117,-3.01759 c 0,0 36.53711,-29.4392 36.58989,-29.38619 0.0528,-0.053 5.71853,-4.55348 8.73728,-6.08902 6.88312,-4.02397 13.39679,-5.8771 20.38661,-5.8771 h 31.29474 c 17.79124,0 32.29984,14.45432 32.29984,32.29834 0.0528,17.68339 -14.45582,32.19198 -32.24821,32.19198 z m -40.87764,38.59781 c 0,17.79008 -14.45696,32.29754 -32.30098,32.29754 -17.79239,0 -32.300987,-14.50746 -32.300987,-32.29754 v -20.0665 h 15.779887 v 20.0665 c 0,9.10674 7.36043,16.51994 16.46832,16.51994 9.10789,0 16.46832,-7.4132 16.46832,-16.51994 v -51.62283 l 15.77874,-12.70836 v 64.33119 z M 95.487323,52.100147 c 0,-17.790326 14.455817,-32.244879 32.300987,-32.244879 18.00351,0 32.72437,14.189738 32.72437,31.715364 0,17.79021 -14.66808,32.297773 -32.72437,32.297773 h -3.86552 V 68.090236 h 3.86552 c 9.16066,0 16.8917,-7.571547 16.8917,-16.466595 0,-8.78926 -7.5727,-15.937196 -16.8917,-15.937196 -9.10789,0 -16.46832,7.412636 -16.46832,16.466596 v 61.736169 l -15.779887,12.8667 V 52.100147 Z M 200.96693,80.956359 H 179.89304 V 52.100147 C 179.89304,23.349722 156.48767,-5e-6 127.78831,-5e-6 99.035016,-5e-6 75.683579,23.349722 75.683579,52.100147 V 80.956359 H 55.031922 c -28.699366,0 -52.103582,23.349721 -52.103582,52.152571 0,28.69822 23.351437,52.04736 52.103582,52.04736 h 20.651657 v 18.79635 c 0,28.75099 23.351437,52.04736 52.104731,52.04736 28.69936,0 52.10473,-23.29637 52.10473,-52.04736 v -18.79635 h 21.07389 c 28.70051,0 52.10473,-23.34914 52.10473,-52.04736 0,-28.80285 -23.40422,-52.152571 -52.10473,-52.152571 z"
     fill="#608239"
     style="stroke-width:1" />
</svg>
